<svg width="422" height="114" viewBox="0 0 422 114" fill="none" xmlns="http://www.w3.org/2000/svg">
<path d="M56.8525 102.395C81.9226 102.395 102.246 82.072 102.246 57.0019C102.246 31.9317 81.9226 11.6084 56.8525 11.6084C31.7823 11.6084 11.459 31.9317 11.459 57.0019C11.459 82.072 31.7823 102.395 56.8525 102.395Z" fill="url(#paint0_linear_6000_2054)"/>
<path d="M51.7979 47.7173L21.5464 85.5306C29.8657 95.8177 42.5917 102.396 56.8514 102.396C81.9201 102.396 102.245 82.0708 102.245 57.002C102.245 48.7336 100.032 40.9824 96.1705 34.3076H79.6982C68.843 34.3076 58.579 39.241 51.7979 47.7173Z" fill="url(#paint1_linear_6000_2054)"/>
<path d="M11.4629 57C11.4629 82.0687 31.783 102.393 56.8564 102.393C81.9297 102.393 102.25 82.0687 102.25 57H11.4629Z" fill="url(#paint2_linear_6000_2054)"/>
<g clip-path="url(#clip0_6000_2054)">
<path d="M118.251 75.8561V38.1455H122.544V75.8561H118.251ZM120.45 59.6691V55.8956H140.77V59.6691H120.45ZM120.45 41.9129V38.1455H142.236V41.919H120.45V41.9129ZM164.254 76.3751C161.635 76.3751 159.229 75.9049 157.025 74.9585C154.857 73.9815 152.976 72.6199 151.37 70.8736C149.764 69.0906 148.507 67.0146 147.597 64.6394C146.724 62.2641 146.29 59.663 146.29 56.8359C146.29 53.099 147.06 49.7835 148.592 46.8832C150.131 43.9828 152.244 41.7175 154.93 40.075C157.653 38.4325 160.743 37.6143 164.199 37.6143C167.655 37.6143 170.836 38.4325 173.523 40.075C176.246 41.7175 178.377 43.9828 179.916 46.8832C181.455 49.7835 182.218 53.1174 182.218 56.8848C182.218 59.7118 181.766 62.313 180.856 64.6882C179.983 67.0634 178.744 69.1212 177.138 70.8675C175.532 72.6138 173.627 73.9754 171.429 74.9524C169.23 75.8927 166.837 76.369 164.254 76.369V76.3751ZM164.199 72.4978C166.886 72.4978 169.243 71.8322 171.27 70.5072C173.327 69.1456 174.933 67.2772 176.087 64.9019C177.241 62.5267 177.815 59.8217 177.815 56.781C177.815 53.7402 177.241 51.1268 176.087 48.8187C174.97 46.5168 173.382 44.7155 171.319 43.4211C169.291 42.1266 166.916 41.4855 164.193 41.4855C161.47 41.4855 159.094 42.1327 157.067 43.4211C155.04 44.7155 153.471 46.5107 152.353 48.8187C151.236 51.0902 150.68 53.7402 150.68 56.781C150.68 59.8217 151.236 62.5755 152.353 64.9508C153.507 67.2894 155.095 69.1395 157.122 70.5011C159.149 71.8261 161.506 72.4917 164.193 72.4917L164.199 72.4978ZM188.128 75.85V38.1455H202.062C204.749 38.1455 207.039 38.579 208.925 39.4522C210.812 40.3253 212.241 41.5465 213.218 43.1158C214.232 44.6545 214.738 46.4863 214.738 48.6173C214.738 50.7482 214.232 52.6167 213.218 54.2226C212.241 55.7918 210.806 57.0313 208.925 57.9411C207.039 58.8143 204.755 59.2478 202.062 59.2478H191.273V55.4743H201.904C204.7 55.4743 206.813 54.8637 208.242 53.6425C209.707 52.4213 210.44 50.7421 210.44 48.6173C210.44 46.4924 209.725 44.8804 208.29 43.6958C206.862 42.5113 204.731 41.9129 201.897 41.9129H192.415V75.8561H188.122L188.128 75.85ZM210.232 75.85L190.174 57.1534H196.042L216.729 75.85H210.232ZM223.11 75.85V38.1455H229.71L243.327 74.4944H241.336L254.855 38.1455H261.559V75.8561H257.315V40.3986H257.889L244.743 75.8561H239.608L226.462 40.71H227.036V75.8561H223.11V75.85ZM268.569 75.85L283.132 38.1455H286.905L272.709 75.8561H268.569V75.85ZM298.531 75.85L284.334 38.1455H288.364L302.927 75.8561H298.525L298.531 75.85ZM275.798 60.6094H295.49V64.3829H275.798V60.6094ZM313.729 75.85V41.9129H300.79V38.1455H330.96V41.919H318.021V75.8622H313.729V75.85ZM337.982 75.85V38.1455H342.274V75.8561H337.982V75.85ZM367.358 76.3751C364.738 76.3751 362.332 75.9049 360.128 74.9585C357.96 73.9815 356.08 72.6199 354.474 70.8736C352.868 69.0906 351.61 67.0146 350.7 64.6394C349.827 62.2641 349.388 59.663 349.388 56.8359C349.388 53.099 350.157 49.7835 351.69 46.8832C353.228 43.9828 355.341 41.7175 358.028 40.075C360.751 38.4325 363.84 37.6143 367.296 37.6143C370.752 37.6143 373.934 38.4325 376.62 40.075C379.344 41.7175 381.475 43.9828 383.007 46.8832C384.546 49.7835 385.309 53.1174 385.309 56.8848C385.309 59.7118 384.857 62.313 383.948 64.6882C383.074 67.0634 381.835 69.1212 380.229 70.8675C378.623 72.6138 376.718 73.9754 374.52 74.9524C372.322 75.8927 369.928 76.369 367.345 76.369L367.358 76.3751ZM367.303 72.4978C369.989 72.4978 372.346 71.8322 374.373 70.5072C376.431 69.1456 378.043 67.2772 379.191 64.9019C380.345 62.5267 380.919 59.8217 380.919 56.781C380.919 53.7402 380.345 51.1268 379.191 48.8187C378.074 46.5168 376.486 44.7155 374.422 43.4211C372.395 42.1266 370.02 41.4855 367.296 41.4855C364.573 41.4855 362.198 42.1327 360.171 43.4211C358.144 44.7155 356.574 46.5107 355.457 48.8187C354.34 51.0902 353.778 53.7402 353.778 56.781C353.778 59.8217 354.34 62.5755 355.457 64.9508C356.611 67.2894 358.199 69.1395 360.226 70.5011C362.253 71.8261 364.61 72.4917 367.296 72.4917L367.303 72.4978ZM392.453 75.85V38.1455H396.904L418.538 69.8844L417.909 69.9882V38.1455H421.994V75.8561H417.543L395.909 44.1171L396.538 44.0133V75.8561H392.453V75.85Z" fill="white"/>
</g>
<defs>
<linearGradient id="paint0_linear_6000_2054" x1="56.8524" y1="-67.5059" x2="56.8524" y2="160.11" gradientUnits="userSpaceOnUse">
<stop stop-color="#89CFFD"/>
<stop offset="1" stop-color="#89CFFD" stop-opacity="0"/>
</linearGradient>
<linearGradient id="paint1_linear_6000_2054" x1="51.4795" y1="19.4062" x2="92.0731" y2="89.7536" gradientUnits="userSpaceOnUse">
<stop stop-color="#89CFFD"/>
<stop offset="1" stop-color="#89CFFD" stop-opacity="0"/>
</linearGradient>
<linearGradient id="paint2_linear_6000_2054" x1="34.5412" y1="19.9518" x2="72.8954" y2="95.4897" gradientUnits="userSpaceOnUse">
<stop stop-color="#89CFFD"/>
<stop offset="1" stop-color="#89CFFD" stop-opacity="0"/>
</linearGradient>
<clipPath id="clip0_6000_2054">
<rect width="303.749" height="38.7608" fill="white" transform="translate(118.251 37.6201)"/>
</clipPath>
</defs>
</svg>
