<svg width="114" height="114" viewBox="0 0 114 114" fill="none" xmlns="http://www.w3.org/2000/svg">
<path d="M56.8525 102.395C81.9226 102.395 102.246 82.072 102.246 57.0019C102.246 31.9317 81.9226 11.6084 56.8525 11.6084C31.7823 11.6084 11.459 31.9317 11.459 57.0019C11.459 82.072 31.7823 102.395 56.8525 102.395Z" fill="url(#paint0_linear_6000_2443)"/>
<path d="M51.7979 47.7173L21.5464 85.5306C29.8657 95.8177 42.5917 102.396 56.8514 102.396C81.9201 102.396 102.245 82.0708 102.245 57.002C102.245 48.7336 100.032 40.9824 96.1705 34.3076H79.6982C68.843 34.3076 58.579 39.241 51.7979 47.7173Z" fill="url(#paint1_linear_6000_2443)"/>
<path d="M11.4629 57C11.4629 82.0687 31.783 102.393 56.8564 102.393C81.9297 102.393 102.25 82.0687 102.25 57H11.4629Z" fill="url(#paint2_linear_6000_2443)"/>
<defs>
<linearGradient id="paint0_linear_6000_2443" x1="56.8524" y1="-67.5059" x2="56.8524" y2="160.11" gradientUnits="userSpaceOnUse">
<stop stop-color="white"/>
<stop offset="1" stop-color="white" stop-opacity="0"/>
</linearGradient>
<linearGradient id="paint1_linear_6000_2443" x1="51.4795" y1="19.4062" x2="92.0731" y2="89.7536" gradientUnits="userSpaceOnUse">
<stop stop-color="white"/>
<stop offset="1" stop-color="white" stop-opacity="0"/>
</linearGradient>
<linearGradient id="paint2_linear_6000_2443" x1="34.5412" y1="19.9518" x2="72.8954" y2="95.4897" gradientUnits="userSpaceOnUse">
<stop stop-color="white"/>
<stop offset="1" stop-color="white" stop-opacity="0"/>
</linearGradient>
</defs>
</svg>
